<?xml version="1.0" encoding="UTF-8" standalone="no"?>
<!DOCTYPE svg PUBLIC "-//W3C//DTD SVG 1.1//EN" "http://www.w3.org/Graphics/SVG/1.1/DTD/svg11.dtd">
<svg width="100%" height="100%" viewBox="0 0 768 1008" version="1.1" xmlns="http://www.w3.org/2000/svg" xmlns:xlink="http://www.w3.org/1999/xlink" xml:space="preserve" xmlns:serif="http://www.serif.com/" style="fill-rule:evenodd;clip-rule:evenodd;stroke-linejoin:round;stroke-miterlimit:2;">
    <g transform="matrix(1,0,0,1,-320,-32)">
        <g id="outline">
            <rect x="464" y="32" width="48" height="16"/>
            <g transform="matrix(1,0,0,1,48,16)">
                <rect x="464" y="32" width="48" height="16"/>
            </g>
            <g transform="matrix(1,0,0,1,48,16)">
                <rect x="464" y="32" width="48" height="16"/>
            </g>
            <g transform="matrix(2,0,0,1,-368,32)">
                <rect x="464" y="32" width="48" height="16"/>
            </g>
            <g transform="matrix(0.666667,0,0,1,346.667,48)">
                <rect x="464" y="32" width="48" height="16"/>
            </g>
            <g transform="matrix(0.666667,0,0,1,378.667,64)">
                <rect x="464" y="32" width="48" height="16"/>
            </g>
            <g transform="matrix(0.666667,0,0,1,410.667,80)">
                <rect x="464" y="32" width="48" height="16"/>
            </g>
            <g transform="matrix(0.333333,0,0,1,597.333,96)">
                <rect x="464" y="32" width="48" height="16"/>
            </g>
            <g transform="matrix(0.333333,0,0,1,613.333,112)">
                <rect x="464" y="32" width="48" height="16"/>
            </g>
            <g transform="matrix(0.333333,0,0,1,629.333,128)">
                <rect x="464" y="32" width="48" height="16"/>
            </g>
            <g transform="matrix(0.333333,0,0,1,645.333,144)">
                <rect x="464" y="32" width="48" height="16"/>
            </g>
            <g transform="matrix(0.333333,0,0,1,645.333,160)">
                <rect x="464" y="32" width="48" height="16"/>
            </g>
            <g transform="matrix(0.333333,0,0,1,661.333,176)">
                <rect x="464" y="32" width="48" height="16"/>
            </g>
            <g transform="matrix(0.333333,0,0,1,677.333,176)">
                <rect x="464" y="32" width="48" height="16"/>
            </g>
            <g transform="matrix(0.333333,0,0,1,693.333,192)">
                <rect x="464" y="32" width="48" height="16"/>
            </g>
            <g transform="matrix(0.333333,0,0,1,709.333,208)">
                <rect x="464" y="32" width="48" height="16"/>
            </g>
            <g transform="matrix(0.333333,0,0,1,709.333,224)">
                <rect x="464" y="32" width="48" height="16"/>
            </g>
            <g transform="matrix(0.333333,0,0,2,661.333,224)">
                <rect x="464" y="32" width="48" height="16"/>
            </g>
            <g transform="matrix(0.666667,0,0,1,474.667,384)">
                <rect x="464" y="32" width="48" height="16"/>
            </g>
            <g transform="matrix(0.666667,0,0,1,314.667,384)">
                <rect x="464" y="32" width="48" height="16"/>
            </g>
            <g transform="matrix(0.333333,0,0,1,453.333,368)">
                <rect x="464" y="32" width="48" height="16"/>
            </g>
            <g transform="matrix(0.333333,0,0,2,453.333,224)">
                <rect x="464" y="32" width="48" height="16"/>
            </g>
            <g transform="matrix(0.333333,0,0,3,517.333,224)">
                <rect x="464" y="32" width="48" height="16"/>
            </g>
            <g transform="matrix(0.333333,0,0,3,597.333,224)">
                <rect x="464" y="32" width="48" height="16"/>
            </g>
            <g transform="matrix(0.333333,0,0,5,437.333,160)">
                <rect x="464" y="32" width="48" height="16"/>
            </g>
            <g transform="matrix(0.333333,0,0,1,661.333,368)">
                <rect x="464" y="32" width="48" height="16"/>
            </g>
            <g transform="matrix(0.333333,0,0,1,693.333,320)">
                <rect x="464" y="32" width="48" height="16"/>
            </g>
            <g transform="matrix(4,0,0,1,-976,400)">
                <rect x="464" y="32" width="48" height="16"/>
            </g>
            <g transform="matrix(0.333333,0,0,1,917.333,416)">
                <rect x="464" y="32" width="48" height="16"/>
            </g>
            <g transform="matrix(0.333333,0,0,1,869.333,448)">
                <rect x="464" y="32" width="48" height="16"/>
            </g>
            <g transform="matrix(0.333333,0,0,1,757.333,480)">
                <rect x="464" y="32" width="48" height="16"/>
            </g>
            <g transform="matrix(0.333333,0,0,1,725.333,432)">
                <rect x="464" y="32" width="48" height="16"/>
            </g>
            <g transform="matrix(0.333333,0,0,1,661.333,448)">
                <rect x="464" y="32" width="48" height="16"/>
            </g>
            <g transform="matrix(0.333333,0,0,1,453.333,448)">
                <rect x="464" y="32" width="48" height="16"/>
            </g>
            <g transform="matrix(0.333333,0,0,1,421.333,320)">
                <rect x="464" y="32" width="48" height="16"/>
            </g>
            <g transform="matrix(0.333333,0,0,1,405.333,432)">
                <rect x="464" y="32" width="48" height="16"/>
            </g>
            <g transform="matrix(0.333333,0,0,4,405.333,240)">
                <rect x="464" y="32" width="48" height="16"/>
            </g>
            <g transform="matrix(0.333333,0,0,1,389.333,448)">
                <rect x="464" y="32" width="48" height="16"/>
            </g>
            <g transform="matrix(0.333333,0,0,1,373.333,464)">
                <rect x="464" y="32" width="48" height="16"/>
            </g>
            <g transform="matrix(0.333333,0,0,2,357.333,448)">
                <rect x="464" y="32" width="48" height="16"/>
            </g>
            <g transform="matrix(0.333333,0,0,2,341.333,480)">
                <rect x="464" y="32" width="48" height="16"/>
            </g>
            <g transform="matrix(0.333333,0,0,1,165.333,480)">
                <rect x="464" y="32" width="48" height="16"/>
            </g>
            <g transform="matrix(0.333333,0,0,1,181.333,464)">
                <rect x="464" y="32" width="48" height="16"/>
            </g>
            <g transform="matrix(0.666667,0,0,1,74.6667,432)">
                <rect x="464" y="32" width="48" height="16"/>
            </g>
            <g transform="matrix(1,0,0,1,-48,416)">
                <rect x="464" y="32" width="48" height="16"/>
            </g>
            <g transform="matrix(2.33333,0,0,1,-618.667,400)">
                <rect x="464" y="32" width="48" height="16"/>
            </g>
            <g transform="matrix(0.666667,0,0,1,42.6667,448)">
                <rect x="464" y="32" width="48" height="16"/>
            </g>
            <g transform="matrix(1.33333,0,0,1,-186.667,512)">
                <rect x="464" y="32" width="48" height="16"/>
            </g>
            <g transform="matrix(0.333333,0,0,2,325.333,512)">
                <rect x="464" y="32" width="48" height="16"/>
            </g>
            <g transform="matrix(2,0,0,1,-592,496)">
                <rect x="464" y="32" width="48" height="16"/>
            </g>
            <g transform="matrix(0.333333,0,0,1,437.333,432)">
                <rect x="464" y="32" width="48" height="16"/>
            </g>
            <g transform="matrix(0.333333,0,0,8,421.333,192)">
                <rect x="464" y="32" width="48" height="16"/>
            </g>
            <g transform="matrix(0.333333,0,0,5,485.333,352)">
                <rect x="464" y="32" width="48" height="16"/>
            </g>
            <g transform="matrix(1,0,0,1,160,464)">
                <rect x="464" y="32" width="48" height="16"/>
            </g>
            <g transform="matrix(1,0,0,1,304,464)">
                <rect x="464" y="32" width="48" height="16"/>
            </g>
            <g transform="matrix(0.666667,0,0,1,522.667,432)">
                <rect x="464" y="32" width="48" height="16"/>
            </g>
            <g transform="matrix(0.333333,0,0,2,741.333,416)">
                <rect x="464" y="32" width="48" height="16"/>
            </g>
            <g transform="matrix(0.666667,0,0,1,682.667,464)">
                <rect x="464" y="32" width="48" height="16"/>
            </g>
            <g transform="matrix(0.666667,0,0,1,650.667,480)">
                <rect x="464" y="32" width="48" height="16"/>
            </g>
            <g transform="matrix(1,0,0,1,448,496)">
                <rect x="464" y="32" width="48" height="16"/>
            </g>
            <g transform="matrix(0.666667,0,0,1,730.667,432)">
                <rect x="464" y="32" width="48" height="16"/>
            </g>
            <g transform="matrix(0.333333,0,0,6,709.333,176)">
                <rect x="464" y="32" width="48" height="16"/>
            </g>
            <g transform="matrix(0.333333,0,0,5,613.333,240)">
                <rect x="464" y="32" width="48" height="16"/>
            </g>
            <g transform="matrix(0.333333,0,0,5,501.333,240)">
                <rect x="464" y="32" width="48" height="16"/>
            </g>
            <g transform="matrix(0.333333,0,0,6,517.333,288)">
                <rect x="464" y="32" width="48" height="16"/>
            </g>
            <g transform="matrix(0.333333,0,0,4,533.333,448)">
                <rect x="464" y="32" width="48" height="16"/>
            </g>
            <g transform="matrix(0.333333,0,0,4,581.333,448)">
                <rect x="464" y="32" width="48" height="16"/>
            </g>
            <g transform="matrix(0.333333,0,0,6,597.333,288)">
                <rect x="464" y="32" width="48" height="16"/>
            </g>
            <g transform="matrix(0.666667,0,0,1,394.667,608)">
                <rect x="464" y="32" width="48" height="16"/>
            </g>
            <g transform="matrix(1,0,0,1,96,656)">
                <rect x="464" y="32" width="48" height="16"/>
            </g>
            <g transform="matrix(1,0,0,1,160,672)">
                <rect x="464" y="32" width="48" height="16"/>
            </g>
            <g transform="matrix(1,0,0,1,304,672)">
                <rect x="464" y="32" width="48" height="16"/>
            </g>
            <g transform="matrix(2.66667,0,0,1,-453.333,784)">
                <rect x="464" y="32" width="48" height="16"/>
            </g>
            <g transform="matrix(2.66667,0,0,1,-725.333,784)">
                <rect x="464" y="32" width="48" height="16"/>
            </g>
            <g transform="matrix(0.666667,0,0,1,442.667,800)">
                <rect x="464" y="32" width="48" height="16"/>
            </g>
            <g transform="matrix(0.666667,0,0,1,170.667,800)">
                <rect x="464" y="32" width="48" height="16"/>
            </g>
            <g transform="matrix(0.666667,0,0,1,330.667,800)">
                <rect x="464" y="32" width="48" height="16"/>
            </g>
            <g transform="matrix(0.666667,0,0,1,602.667,800)">
                <rect x="464" y="32" width="48" height="16"/>
            </g>
            <g transform="matrix(0.666667,0,0,2,634.667,800)">
                <rect x="464" y="32" width="48" height="16"/>
            </g>
            <g transform="matrix(0.333333,0,0,2,821.333,768)">
                <rect x="464" y="32" width="48" height="16"/>
            </g>
            <g transform="matrix(0.333333,0,0,2,757.333,880)">
                <rect x="464" y="32" width="48" height="16"/>
            </g>
            <g transform="matrix(0.333333,0,0,2,741.333,912)">
                <rect x="464" y="32" width="48" height="16"/>
            </g>
            <g transform="matrix(0.333333,0,0,1,725.333,976)">
                <rect x="464" y="32" width="48" height="16"/>
            </g>
            <g transform="matrix(0.333333,0,0,1,645.333,976)">
                <rect x="464" y="32" width="48" height="16"/>
            </g>
            <g transform="matrix(0.333333,0,0,2,629.333,912)">
                <rect x="464" y="32" width="48" height="16"/>
            </g>
            <g transform="matrix(0.333333,0,0,2,341.333,880)">
                <rect x="464" y="32" width="48" height="16"/>
            </g>
            <g transform="matrix(0.333333,0,0,2,293.333,800)">
                <rect x="464" y="32" width="48" height="16"/>
            </g>
            <g transform="matrix(0.333333,0,0,2,277.333,768)">
                <rect x="464" y="32" width="48" height="16"/>
            </g>
            <g transform="matrix(0.333333,0,0,2,277.333,608)">
                <rect x="464" y="32" width="48" height="16"/>
            </g>
            <g transform="matrix(0.333333,0,0,2,293.333,576)">
                <rect x="464" y="32" width="48" height="16"/>
            </g>
            <g transform="matrix(0.333333,0,0,2,309.333,544)">
                <rect x="464" y="32" width="48" height="16"/>
            </g>
            <g transform="matrix(0.333333,0,0,8,261.333,448)">
                <rect x="464" y="32" width="48" height="16"/>
            </g>
            <g transform="matrix(0.333333,0,0,2,357.333,912)">
                <rect x="464" y="32" width="48" height="16"/>
            </g>
            <g transform="matrix(0.333333,0,0,1,373.333,976)">
                <rect x="464" y="32" width="48" height="16"/>
            </g>
            <g transform="matrix(0.333333,0,0,1,453.333,976)">
                <rect x="464" y="32" width="48" height="16"/>
            </g>
            <g transform="matrix(0.333333,0,0,2,469.333,912)">
                <rect x="464" y="32" width="48" height="16"/>
            </g>
            <g transform="matrix(0.333333,0,0,2,485.333,880)">
                <rect x="464" y="32" width="48" height="16"/>
            </g>
            <g transform="matrix(0.333333,0,0,2,613.333,880)">
                <rect x="464" y="32" width="48" height="16"/>
            </g>
            <g transform="matrix(0.333333,0,0,3,597.333,800)">
                <rect x="464" y="32" width="48" height="16"/>
            </g>
            <g transform="matrix(0.333333,0,0,3,501.333,800)">
                <rect x="464" y="32" width="48" height="16"/>
            </g>
            <g transform="matrix(0.333333,0,0,3,581.333,752)">
                <rect x="464" y="32" width="48" height="16"/>
            </g>
            <g transform="matrix(0.333333,0,0,3,517.333,752)">
                <rect x="464" y="32" width="48" height="16"/>
            </g>
            <g transform="matrix(0.333333,0,0,2,645.333,768)">
                <rect x="464" y="32" width="48" height="16"/>
            </g>
            <g transform="matrix(0.333333,0,0,2,373.333,768)">
                <rect x="464" y="32" width="48" height="16"/>
            </g>
            <g transform="matrix(0.333333,0,0,2,453.333,768)">
                <rect x="464" y="32" width="48" height="16"/>
            </g>
            <g transform="matrix(0.333333,0,0,4,309.333,720)">
                <rect x="464" y="32" width="48" height="16"/>
            </g>
            <g transform="matrix(0.333333,0,0,2,725.333,768)">
                <rect x="464" y="32" width="48" height="16"/>
            </g>
            <g transform="matrix(1.33333,0,0,1,197.333,992)">
                <rect x="464" y="32" width="48" height="16"/>
            </g>
            <g transform="matrix(1.33333,0,0,1,-74.6667,992)">
                <rect x="464" y="32" width="48" height="16"/>
            </g>
            <g transform="matrix(2.33333,0,0,1,-426.667,928)">
                <rect x="464" y="32" width="48" height="16"/>
            </g>
            <g transform="matrix(2e-06,0,0,2,912,880)">
                <rect x="464" y="32" width="48" height="16"/>
            </g>
            <g transform="matrix(0.333333,0,0,1,789.333,816)">
                <rect x="464" y="32" width="48" height="16"/>
            </g>
            <g transform="matrix(0.333333,0,0,1,789.333,864)">
                <rect x="464" y="32" width="48" height="16"/>
            </g>
            <g transform="matrix(0.333333,0,0,3,773.333,800)">
                <rect x="464" y="32" width="48" height="16"/>
            </g>
            <g transform="matrix(0.333333,0,0,3,325.333,800)">
                <rect x="464" y="32" width="48" height="16"/>
            </g>
            <g transform="matrix(0.333333,0,0,2,821.333,608)">
                <rect x="464" y="32" width="48" height="16"/>
            </g>
            <g transform="matrix(0.333333,0,0,2,805.333,576)">
                <rect x="464" y="32" width="48" height="16"/>
            </g>
            <g transform="matrix(0.333333,0,0,2,789.333,544)">
                <rect x="464" y="32" width="48" height="16"/>
            </g>
            <g transform="matrix(0.333333,0,0,2,773.333,512)">
                <rect x="464" y="32" width="48" height="16"/>
            </g>
            <g transform="matrix(0.333333,0,0,2,757.333,480)">
                <rect x="464" y="32" width="48" height="16"/>
            </g>
            <g transform="matrix(0.333333,0,0,8,837.333,448)">
                <rect x="464" y="32" width="48" height="16"/>
            </g>
            <g transform="matrix(2,0,0,1,-256,656)">
                <rect x="464" y="32" width="48" height="16"/>
            </g>
            <g transform="matrix(0.333333,0,0,3,405.333,480)">
                <rect x="464" y="32" width="48" height="16"/>
            </g>
            <g transform="matrix(0.333333,0,0,3,405.333,480)">
                <rect x="464" y="32" width="48" height="16"/>
            </g>
            <g transform="matrix(0.333333,0,0,3,469.333,496)">
                <rect x="464" y="32" width="48" height="16"/>
            </g>
            <g transform="matrix(0.333333,0,0,3,453.333,544)">
                <rect x="464" y="32" width="48" height="16"/>
            </g>
            <g transform="matrix(0.333333,0,0,4,389.333,496)">
                <rect x="464" y="32" width="48" height="16"/>
            </g>
            <g transform="matrix(2,0,0,1,-256,352)">
                <rect x="464" y="32" width="48" height="16"/>
            </g>
            <g transform="matrix(0.333333,0,0,5,677.333,160)">
                <rect x="464" y="32" width="48" height="16"/>
            </g>
            <g transform="matrix(0.333333,0,0,1,421.333,224)">
                <rect x="464" y="32" width="48" height="16"/>
            </g>
            <g transform="matrix(0.333333,0,0,1,421.333,208)">
                <rect x="464" y="32" width="48" height="16"/>
            </g>
            <g transform="matrix(0.333333,0,0,1,437.333,192)">
                <rect x="464" y="32" width="48" height="16"/>
            </g>
            <g transform="matrix(0.333333,0,0,1,437.333,176)">
                <rect x="464" y="32" width="48" height="16"/>
            </g>
            <g transform="matrix(0.333333,0,0,1,453.333,160)">
                <rect x="464" y="32" width="48" height="16"/>
            </g>
            <g transform="matrix(0.333333,0,0,1,469.333,144)">
                <rect x="464" y="32" width="48" height="16"/>
            </g>
            <g transform="matrix(0.333333,0,0,1,485.333,128)">
                <rect x="464" y="32" width="48" height="16"/>
            </g>
            <g transform="matrix(0.333333,0,0,2,469.333,64)">
                <rect x="464" y="32" width="48" height="16"/>
            </g>
            <g transform="matrix(0.333333,0,0,1,501.333,112)">
                <rect x="464" y="32" width="48" height="16"/>
            </g>
            <g transform="matrix(0.333333,0,0,1,453.333,80)">
                <rect x="464" y="32" width="48" height="16"/>
            </g>
            <g transform="matrix(0.333333,0,0,1,373.333,96)">
                <rect x="464" y="32" width="48" height="16"/>
            </g>
            <g transform="matrix(0.333333,0,0,1,341.333,144)">
                <rect x="464" y="32" width="48" height="16"/>
            </g>
            <g transform="matrix(0.333333,0,0,1,325.333,64)">
                <rect x="464" y="32" width="48" height="16"/>
            </g>
            <g transform="matrix(0.333333,0,0,1,309.333,32)">
                <rect x="464" y="32" width="48" height="16"/>
            </g>
            <g transform="matrix(0.333333,0,0,4,293.333,-80)">
                <rect x="464" y="32" width="48" height="16"/>
            </g>
            <g transform="matrix(0.333333,0,0,2,309.333,48)">
                <rect x="464" y="32" width="48" height="16"/>
            </g>
            <g transform="matrix(0.333333,0,0,2,325.333,80)">
                <rect x="464" y="32" width="48" height="16"/>
            </g>
            <g transform="matrix(0.333333,0,0,2,357.333,80)">
                <rect x="464" y="32" width="48" height="16"/>
            </g>
            <g transform="matrix(0.666667,0,0,1,234.667,80)">
                <rect x="464" y="32" width="48" height="16"/>
            </g>
            <g transform="matrix(0.666667,0,0,1,266.667,64)">
                <rect x="464" y="32" width="48" height="16"/>
            </g>
            <g transform="matrix(0.333333,0,0,1,517.333,96)">
                <rect x="464" y="32" width="48" height="16"/>
            </g>
            <g transform="matrix(0.333333,0,0,1,517.333,80)">
                <rect x="464" y="32" width="48" height="16"/>
            </g>
            <g transform="matrix(5.66667,0,0,1,-2037.33,240)">
                <rect x="464" y="32" width="48" height="16"/>
            </g>
            <g transform="matrix(5,0,0,1,-1712,208)">
                <rect x="464" y="32" width="48" height="16"/>
            </g>
        </g>
        <g id="ulf-color" serif:id="ulf color">
            <path d="M624,400L608,400L608,320L624,320L624,288L816,288L816,320L832,320L832,400L816,400L816,416L784,416L784,400L768,400L768,384L672,384L672,400L656,400L656,416L624,416L624,400ZM672,320L672,368L688,368L688,320L672,320ZM752,320L752,368L768,368L768,320L752,320Z" style="fill:rgb(166,119,42);"/>
        </g>
        <g transform="matrix(1.06667,0,0,2.85714,-43.7333,-706.286)">
            <path d="M596,404L581,404L581,376L596,376L596,387.2L611,387.2L611,392.8L626,392.8L626,398.4L656,398.4L656,415.2L671,415.2L671,420.8L626,420.8L626,415.2L611,415.2L611,409.6L596,409.6L596,404ZM806,420.8L761,420.8L761,415.2L776,415.2L776,398.4L806,398.4L806,392.8L821,392.8L821,387.2L836,387.2L836,376L851,376L851,409.6L821,409.6L821,415.2L806,415.2L806,420.8Z" style="fill:rgb(249,241,220);"/>
        </g>
        <g transform="matrix(4.17391,0,0,1,-2266.43,-16)">
            <path d="M707.833,496L704,496L704,416L727,416L727,496L723.167,496L723.167,592L719.333,592L719.333,656L711.667,656L711.667,592L707.833,592L707.833,496Z" style="fill:rgb(252,197,22);"/>
        </g>
        <path d="M496,896L480,896L480,848L512,848L512,832L528,832L528,864L544,864L544,832L608,832L608,864L624,864L624,832L640,832L640,848L672,848L672,896L656,896L656,944L640,944L640,976L624,976L624,1008L608,1008L608,1024L544,1024L544,1008L528,1008L528,976L512,976L512,944L496,944L496,896Z" style="fill:rgb(252,197,22);"/>
        <g transform="matrix(1,0,0,0.333333,272,565.333)">
            <path d="M496,992L480,992L480,848L512,848L512,800L528,800L528,896L544,896L544,800L608,800L608,896L624,896L624,800L640,800L640,848L672,848L672,992L656,992L656,1136L640,1136L640,1232L624,1232L624,1328L608,1328L608,1376L544,1376L544,1328L528,1328L528,1232L512,1232L512,1136L496,1136L496,992Z" style="fill:rgb(252,197,22);"/>
        </g>
        <g transform="matrix(1,0,0,1.54074,0,-259.556)">
            <path d="M608,615L560,615L560,573.462L576,573.462L576,542.308L592,542.308L592,480L608,480L608,490.385L624,490.385L624,500.769L640,500.769L640,552.692L624,552.692L624,583.846L608,583.846L608,615Z" style="fill:rgb(249,241,220);"/>
        </g>
        <path d="M480,112L464,112L464,80L480,80L480,64L464,64L464,48L512,48L512,64L560,64L560,80L656,80L656,96L688,96L688,112L672,112L672,144L656,144L656,160L640,160L640,128L624,128L624,112L608,112L608,96L576,96L576,112L544,112L544,128L528,128L528,144L512,144L512,176L496,176L496,144L480,144L480,112L496,112L496,96L480,96L480,112ZM688,112L720,112L720,128L752,128L752,144L768,144L768,160L784,160L784,176L800,176L800,208L816,208L816,224L848,224L848,240L608,240L608,208L624,208L624,192L640,192L640,176L656,176L656,160L672,160L672,144L688,144L688,112ZM848,240L864,240L864,272L592,272L592,240L608,240L608,256L848,256L848,240Z" style="fill:rgb(249,241,220);"/>
        <g transform="matrix(2e-06,0,0,1,592,0)">
            <rect x="592" y="480" width="16" height="135" style="fill:rgb(249,241,220);"/>
        </g>
        <path d="M336,528L336,512L352,512L352,496L384,496L384,480L416,480L416,464L464,464L464,448L576,448L576,464L560,464L560,480L544,480L544,496L528,496L528,512L512,512L512,544L432,544L432,528L336,528Z" style="fill:rgb(166,119,42);"/>
        <path d="M880,448L880,464L896,464L896,480L912,480L912,512L928,512L928,528L960,528L960,512L992,512L992,496L1024,496L1024,480L1040,480L1040,464L1072,464L1072,448L880,448Z" style="fill:rgb(166,119,42);"/>
        <g transform="matrix(1,0,0,1.71429,-48,-502.857)">
            <path d="M480,778.667L480,704L496,704L496,685.333L512,685.333L512,666.667L528,666.667L528,648L544,648L544,629.333L560,629.333L560,610.667L576,610.667L576,592L592,592L592,582.667L608,582.667L608,573.333L624,573.333L624,629.333L608,629.333L608,657.333L592,657.333L592,694.667L608,694.667L608,704L656,704L656,694.667L672,694.667L672,666.667L688,666.667L688,638.667L704,638.667L704,592L720,592L720,629.333L736,629.333L736,666.667L752,666.667L752,676L784,676L784,666.667L800,666.667L800,629.333L816,629.333L816,592L864,592L864,582.667L880,582.667L880,573.333L912,573.333L912,564L928,564L928,573.333L944,573.333L944,592L960,592L960,629.333L976,629.333L976,648L992,648L992,666.667L1008,666.667L1008,685.333L1024,685.333L1024,704L1040,704L1040,778.667L1024,778.667L1024,797.333L1008,797.333L1008,788L992,788L992,778.667L960,778.667L960,769.333L832,769.333L832,778.667L800,778.667L800,788L784,788L784,816L800,816L800,844L816,844L816,853.333L704,853.333L704,844L720,844L720,816L736,816L736,788L720,788L720,778.667L688,778.667L688,769.333L560,769.333L560,778.667L528,778.667L528,788L512,788L512,797.333L496,797.333L496,778.667L480,778.667ZM672,704L672,713.333L720,713.333L720,704L816,704L816,713.333L864,713.333L864,704L816,704L816,694.667L720,694.667L720,704L672,704Z" style="fill:rgb(166,119,42);"/>
        </g>
    </g>
</svg>
